<?xml version="1.0" encoding="UTF-8"?>
<svg width="358px" height="326px" viewBox="0 0 358 326" version="1.1" xmlns="http://www.w3.org/2000/svg" xmlns:xlink="http://www.w3.org/1999/xlink">
    <title>CS+</title>
    <g id="Page-1" stroke="none" stroke-width="1" fill="none" fill-rule="evenodd">
        <g id="CS+">
            <g id="application" fill-rule="nonzero">
                <polygon id="Triangle-1" fill="#000000" points="154.5 93 175 326 134 326"></polygon>
                <polygon id="Triangle-1" fill="#000000" transform="translate(121.527346, 253.954103) rotate(-45.000000) translate(-121.527346, -253.954103) " points="120.414895 202.26695 132.231313 305.641256 110.823379 303.535131"></polygon>
                <polygon id="Triangle-1" fill="#000000" transform="translate(195.189941, 206.219723) rotate(-135.000000) translate(-195.189941, -206.219723) " points="196.021001 149.603882 206.724968 262.835565 183.654914 262.835564"></polygon>
                <polygon id="Triangle-1" fill="#000000" transform="translate(227.320801, 193.241698) rotate(-135.000000) translate(-227.320801, -193.241698) " points="210.811515 174.05383 243.830088 196.974034 240.494807 212.429566"></polygon>
                <polygon id="Triangle-1" fill="#000000" transform="translate(117.570312, 229.575195) rotate(-135.000000) translate(-117.570312, -229.575195) " points="134.838494 214.348231 100.302129 244.802159 111.662793 244.802159"></polygon>
                <polygon id="Triangle-1" fill="#000000" transform="translate(139.833983, 136.583984) rotate(-135.000000) translate(-139.833983, -136.583984) " points="161.276444 136.310532 122.109358 131.366309 118.391523 141.801659"></polygon>
                <path d="M248.699792,113 C248.89873,110.359388 249,107.69152 249,105 C249,47.0101013 201.989899,0 144,0 C86.0101013,0 39,47.0101013 39,105 C39,162.989899 86.0101013,210 144,210 C148.337946,210 152.614452,209.73694 156.814434,209.225902 C127.699546,207.11251 82.1216135,193.286105 66.9998158,145.026529 C59.1523216,119.982102 56.7908831,76.7384194 96.4986011,44.2997035 C136.206319,11.8609877 181.54875,25.2336754 192.370535,30.1436261 C237.021302,50.4021201 245.410406,83.3873525 245.675266,113 L248.699792,113 L248.699792,113 Z" id="Oval-1" fill="#417505"></path>
                <path d="M94.7875573,133.171632 C56.7936098,133.171632 25.9934297,164.057161 25.9934297,202.156391 C25.9934297,240.255622 56.7936098,271.14115 94.7875573,271.14115 C97.1745719,271.14115 99.5331918,271.019241 101.857563,270.781293 C82.8727643,270.370142 54.4121607,266.701203 39.5375868,233.961109 C32.3615998,218.166204 28.5523131,191.606964 53.7160919,168.198294 C71.2633418,151.874919 85.2617155,154.18051 87.2719949,155.095121 C89.6909192,156.195652 92.2066892,157.339335 94.7875573,158.522471 L94.7875573,133.171632 L94.7875573,133.171632 Z M161.47322,219.171632 C160.974291,221.143894 160.390637,223.082274 159.72637,224.982649 C160.124459,223.075703 160.453107,221.136812 160.710976,219.171632 L161.47322,219.171632 L161.47322,219.171632 Z" id="Oval-1" fill="#417505" transform="translate(93.733325, 202.156391) rotate(-30.000000) translate(-93.733325, -202.156391) "></path>
                <path d="M243.963357,233.32604 C241.347158,233.628025 238.686262,233.78324 235.989114,233.78324 C197.995166,233.78324 167.194986,202.98306 167.194986,164.989113 C167.194986,126.995165 197.995166,96.194985 235.989114,96.194985 C273.983061,96.194985 304.783241,126.995165 304.783241,164.989113 C304.783241,172.966852 303.425291,180.627424 300.927926,187.752293 C302.039116,182.444132 302.609262,176.887759 302.609262,171.205841 C302.609262,151.556894 295.611964,134.354742 266.690016,119.671449 C259.744851,116.145479 234.86944,107.041042 207.959985,127.813978 C181.05053,148.586913 183.191222,177.385843 188.652011,194.50675 C198.630786,225.792649 225.396416,232.337441 243.963361,233.32604 L243.963357,233.32604 Z" id="Oval-1" fill="#417505" transform="translate(235.989113, 164.989112) rotate(64.000000) translate(-235.989113, -164.989112) "></path>
            </g>
            <path d="M350.290175,49.2233516 C347.739871,64.9203284 335.638947,76.7946312 321.504269,76.7946312 C307.361053,76.7946312 295.249883,64.9189992 292.709825,49.2233516 L285,49.2233516 C287.650199,69.1696638 302.976784,85 321.504269,85 C340.16452,85 355.374561,69.1687777 358,49.2233516 L350.290175,49.2233516 M292.709825,35.7988011 C295.371977,20.0739119 307.438322,8.11675788 321.5,8.11675788 C335.552713,8.11675788 347.60924,20.0730258 350.273099,35.7988011 L358,35.7988011 C355.237953,15.8081835 340.083836,0 321.5,0 C303.057895,0 287.778696,15.8064113 285,35.7988011 L292.709825,35.7988011" id="Shape" fill="#000000" fill-rule="nonzero"></path>
            <g id="Group" transform="translate(285.000000, 0.000000)">
                <g id="application"></g>
                <text id="+" font-family="PTSans-Bold, PT Sans" font-size="72" font-weight="bold" fill="#000000">
                    <tspan x="18.528" y="68">+</tspan>
                </text>
            </g>
        </g>
    </g>
</svg>